<svg xmlns="http://www.w3.org/2000/svg" width="880" height="520" viewBox="0 0 880 520" font-family="Helvetica, Arial, sans-serif">
  <title>Fictional page after submit, not responding (preview fixture)</title>
  <rect width="880" height="520" fill="#ffffff"/>
  <rect width="880" height="44" fill="#eceff3"/>
  <circle cx="22" cy="22" r="6" fill="#d0d4da"/><circle cx="42" cy="22" r="6" fill="#d0d4da"/><circle cx="62" cy="22" r="6" fill="#d0d4da"/>
  <rect x="90" y="11" width="620" height="22" rx="11" fill="#ffffff"/>
  <text x="106" y="27" font-size="12" fill="#5b6470" font-family="Menlo, monospace">jobs.example.test/juniper-vale/apply?step=review</text>
  <rect y="44" width="880" height="64" fill="#2d2a26"/>
  <text x="40" y="84" font-size="20" font-weight="700" fill="#ffffff">Juniper &amp; Vale Studio</text>
  <rect x="40" y="140" width="800" height="300" fill="#f7f7f8"/>
  <rect x="80" y="180" width="420" height="16" rx="3" fill="#e2e4e8"/>
  <rect x="80" y="214" width="560" height="16" rx="3" fill="#e2e4e8"/>
  <rect x="80" y="248" width="360" height="16" rx="3" fill="#e2e4e8"/>
  <rect x="80" y="330" width="170" height="46" rx="6" fill="#9aa2ad"/>
  <text x="165" y="359" font-size="15" font-weight="700" fill="#ffffff" text-anchor="middle">Submitting…</text>
  <circle cx="290" cy="353" r="12" fill="none" stroke="#c4c9d0" stroke-width="4"/>
  <path d="M290 341 a12 12 0 0 1 12 12" fill="none" stroke="#5b6470" stroke-width="4"/>
  <text x="860" y="508" font-size="11" fill="#9aa2ad" text-anchor="end">Fictional preview fixture · not a real employer</text>
</svg>
